<!DOCTYPE svg PUBLIC "-//W3C//DTD SVG 1.1//EN" "http://www.w3.org/Graphics/SVG/1.1/DTD/svg11.dtd">
<!-- Uploaded to: SVG Repo, www.svgrepo.com, Transformed by: SVG Repo Mixer Tools -->
<svg version="1.1" id="_x32_" xmlns="http://www.w3.org/2000/svg" xmlns:xlink="http://www.w3.org/1999/xlink" width="800px" height="800px" viewBox="-107.52 -107.52 727.04 727.04" xml:space="preserve" fill="#5a1b40" stroke="#5a1b40" transform="matrix(-1, 0, 0, 1, 0, 0)" stroke-width="5.12">
<g id="SVGRepo_bgCarrier" stroke-width="0"/>
<g id="SVGRepo_tracerCarrier" stroke-linecap="round" stroke-linejoin="round"/>
<g id="SVGRepo_iconCarrier"> <style type="text/css">  .st0{fill:#ed0297;}  </style> <g> <path class="st0" d="M0,48v416h512V48H0z M92,424H36v-32h56V424z M92,120H36V88h56V120z M188,424h-56v-32h56V424z M188,120h-56V88 h56V120z M284,424h-56v-32h56V424z M284,120h-56V88h56V120z M380,424h-56v-32h56V424z M380,120h-56V88h56V120z M476,424h-56v-32h56 V424z M476,120h-56V88h56V120z"/> </g> </g>
</svg>